# xmcd
#
# Track frame offsets:
# 150
# 20955
# 38610
# 57272
# 76567
# 96204
# 111785
# 132740
# 160140
# 177950
# 199735
# 218995
#
# Disc length: 3120 seconds
#
#
# Revision: 2
# Processed by: cddbd v1.5PL3 Copyright (c) Steve Scherf et al.
# Submitted via: FreeRIP 2.53 
#
DISCID=a20c2e0c
DTITLE=Jack Williams - Dreams of the Song Dog
DYEAR=1995
DGENRE=Folk/Rock
TTITLE0=Free Flows The Wine
TTITLE1=Made To Love You
TTITLE2=Never Say Goodbye
TTITLE3=Solitaire
TTITLE4=The Seetest Thing
TTITLE5=The Blind Leading The Blind
TTITLE6=Turning Away
TTITLE7=Cast In Stone
TTITLE8=Lorelei
TTITLE9=The Deep End
TTITLE10=There's Got To Be A Way To Do It All
TTITLE11=That's All
EXTD=
EXTT0=
EXTT1=
EXTT2=
EXTT3=
EXTT4=
EXTT5=
EXTT6=
EXTT7=
EXTT8=
EXTT9=
EXTT10=
EXTT11=
PLAYORDER=
